<svg width="28px" height="28px" viewBox="0 0 28 29" version="1.1" xmlns="http://www.w3.org/2000/svg" xmlns:xlink="http://www.w3.org/1999/xlink" class="ui-icon ui-icon--current-color" role="img"><path transform="translate(0 2)" fill="currentColor" d="M7.75,19 C8.99264069,19 10,20.0080216 10,21.2514793 C10,22.4949369 8.99264069,23.5029585 7.75,23.5029585 C6.50735931,23.5029585 5.5,22.4949369 5.5,21.2514793 C5.5,20.0080216 6.50735931,19 7.75,19 Z M18.0499992,19 C19.2926399,19 20.2999992,20.0080216 20.2999992,21.2514793 C20.2999992,22.4949369 19.2926399,23.5029585 18.0499992,23.5029585 C16.8073586,23.5029585 15.7999992,22.4949369 15.7999992,21.2514793 C15.7999992,20.0080216 16.8073586,19 18.0499992,19 Z M22.5909184,4.00038898 C23.1432031,4.00020768 23.5910653,4.44777592 23.5912466,5.00006064 C23.591265,5.05607361 23.5865772,5.11198909 23.5772326,5.16721709 L22.6747475,10.501075 C22.4305572,11.9442862 21.1805134,13.0005906 19.7167896,13.0005906 L7.53052499,13.0005906 L5.5,4.0059997 L22.5909184,4.00038898 Z M3.84014743,0 C5.28379264,0 6.52271673,1.02821567 6.78876399,2.44713439 L9.17698039,15.1842885 C9.26566281,15.6572614 9.6786375,16 10.1598526,16 L20,16 C20.5522847,16 21,16.4477153 21,17 C21,17.5522847 20.5522847,18 20,18 L10.1598526,18 C8.71620736,18 7.47728327,16.9717843 7.21123601,15.5528656 L4.82301961,2.81571146 C4.73433719,2.34273856 4.3213625,2 3.84014743,2 L1.5,2 C0.94771525,2 0.5,1.55228475 0.5,1 C0.5,0.44771525 0.94771525,0 1.5,0 L3.84014743,0 Z" id="path-1"></path></svg>